<?xml version="1.0" encoding="UTF-8"?>
<svg id="Layer_1" data-name="Layer 1" xmlns="http://www.w3.org/2000/svg" xmlns:xlink="http://www.w3.org/1999/xlink" viewBox="0 0 1417.79 327">
  <defs>
    <style>
      .cls-1 {
        fill: #8a50cf;
      }

      .cls-2 {
        fill: url(#linear-gradient-5);
      }

      .cls-3 {
        fill: url(#linear-gradient-4);
      }

      .cls-4 {
        fill: url(#linear-gradient-3);
      }

      .cls-5 {
        fill: url(#linear-gradient-2);
      }

      .cls-6 {
        fill: url(#linear-gradient);
      }

      .cls-7 {
        fill: #fff;
      }
    </style>
    <linearGradient id="linear-gradient" x1="216.28" y1="28.79" x2="216.28" y2="324.73" gradientUnits="userSpaceOnUse">
      <stop offset="0" stop-color="#b671fb"/>
      <stop offset="1" stop-color="#4f316d"/>
    </linearGradient>
    <linearGradient id="linear-gradient-2" x1="220.31" y1="28.79" x2="220.31" y2="324.6" xlink:href="#linear-gradient"/>
    <linearGradient id="linear-gradient-3" x1="271.46" y1="28.79" x2="271.46" y2="324.73" xlink:href="#linear-gradient"/>
    <linearGradient id="linear-gradient-4" x1="328.75" y1="28.79" x2="328.75" y2="324.73" xlink:href="#linear-gradient"/>
    <linearGradient id="linear-gradient-5" x1="265.21" y1="28.79" x2="265.21" y2="324.73" xlink:href="#linear-gradient"/>
  </defs>
  <g>
    <path class="cls-6" d="M353.01,159.26c-24.55.35-49.19,1.5-73.32,6.01-33.79,6.32-70.05,20.22-100.63,35.78-18.3,9.31-34.38,21.38-52.54,30.57L200.41,32.74h-58.97c-5.58,0-20.09,9.69-23.21,15.15-33.78,83.04-69.75,165.93-100.8,250.12-1.74,4.72-3.19,9.75-4.6,14.58-.27.92-2.43,2.69-.71,2.85,23.86-1.66,50.48,2.17,73.98.06,2.4-.22,1.93.03,3.46-1.49.24-.23-.23-1.1,0-1.42.87-1.23.98-2.11,1.42-2.84,36.72-60.41,116.31-77.19,182.59-71.01,4.73.44,26.08,3.45,28.56,5.55,2.97,2.51,3.32,12.59,12.06,19.2,25.02,18.91,56.73-4.26,46.87-34.07-6.29-19.02-32.39-25.66-47.68-13.42-3.79,3.04-7.2,10.96-11.39,11.36-3.97.38-12.78-3.1-17.45-3.84-10.65-1.68-23.1-4.02-33.7-4.66-19.06-1.17-38.53.69-57.53.7,23.97-14.54,51.89-25.98,79.26-32.99,25.81-6.61,52.24-9.69,78.95-8.99,7.69,33.06,56.56,37.33,67.4,4.71,14.92-44.89-50.96-67.71-65.91-23.02Z"/>
    <path class="cls-5" d="M176.31,128.8c-1.17,12.03,16,38.49,18.43,51.68l69.61-29.84c-14.36-39.17-28.52-78.85-46.07-116.58-1.5-1.34-3.75-1.85-5.62-1.21-2.31.79-14.62,33.79-16.57,38.91-4.6,12.09-18.75,46.52-19.78,57.05Z"/>
    <path class="cls-4" d="M296.4,255.7c-24.61-7.29-50.68-8.68-76.09-5.6l27.7,63.92h74.61l-.65-4.31-25.56-54Z"/>
    <path class="cls-3" d="M271.46,147.81c2.64-1.31,16.3-3.57,16.87-4.45,1.78-2.77-1.29-22.96.45-28.66.75-2.46,4.8-4.43,6.96-5.83,2.41-1.56,23.47-12.13,24.85-12.25,3.5-.3,9.91,6.54,14.27,8.42,31.4,13.57,61.29-16.29,49.11-47.67-11.01-28.37-53.64-29.05-66.77-2.34-4.57,9.29-1.49,22.25-3.79,26.04-4.67,7.68-38.53,9.32-41.94,26.26-2.21,10.98,1.64,28.71,0,40.49Z"/>
    <path class="cls-2" d="M243.04,210.3c11.11.37,22.34-.43,33.45-.05,8.44.29,11.96,6.27,10.6-7.04h-24.87c-2.3,0-17.55,4.2-19.18,7.09Z"/>
  </g>
  <path class="cls-7" d="M495.88,131.22h26.98l37.8,104.92h-26.81l-7.16-22.48h-35.31l-7.16,22.48h-26.48l38.14-104.92ZM496.88,195.34h23.98l-4-12.66c-1.33-4.11-2.69-8.49-4.08-13.16-1.39-4.66-2.58-8.94-3.58-12.82h-.33c-1.11,3.89-2.39,8.11-3.83,12.66-1.44,4.55-2.83,8.99-4.16,13.32l-4,12.66Z"/>
  <path class="cls-7" d="M624.12,156.2h24.65v79.94h-18.15l-2.5-8.66h-.67c-1.11,1.11-2.44,2.28-4,3.5-1.56,1.22-3.42,2.36-5.58,3.41-2.17,1.06-4.64,1.91-7.41,2.58-2.78.67-5.94,1-9.49,1-8.66,0-15.43-2.39-20.32-7.16-4.89-4.77-7.33-11.82-7.33-21.15v-53.46h24.65v51.46c0,4.11,1.02,7.13,3.08,9.08,2.05,1.94,4.69,2.91,7.91,2.91,3.89,0,7.08-.8,9.58-2.41,2.5-1.61,4.35-3.3,5.58-5.08v-55.96Z"/>
  <path class="cls-7" d="M717.54,173.85h-20.48v33.81c0,3.66.8,6.22,2.41,7.66,1.61,1.44,3.86,2.16,6.74,2.16,2.22,0,4.44-.22,6.66-.67,2.22-.44,3.94-1.05,5.16-1.83l3.66,16.82c-1.89,1-4.75,1.97-8.58,2.91-3.83.94-7.91,1.42-12.24,1.42-10.32,0-17.63-2-21.9-5.99-4.27-4-6.41-10.05-6.41-18.15v-38.14h-12.49v-17.65h12.49v-24.32h24.48v24.32h20.48v17.65Z"/>
  <path class="cls-7" d="M811.8,195.67c0,6.55-1.08,12.44-3.25,17.65-2.16,5.22-5.14,9.66-8.91,13.32-3.78,3.66-8.22,6.47-13.32,8.41-5.11,1.94-10.6,2.91-16.49,2.91s-11.35-.92-16.4-2.75c-5.05-1.83-9.41-4.47-13.07-7.91-3.66-3.44-6.55-7.69-8.66-12.74-2.11-5.05-3.16-10.8-3.16-17.24,0-6.77,1.08-12.82,3.25-18.15,2.16-5.33,5.14-9.83,8.91-13.49,3.77-3.66,8.22-6.47,13.32-8.41,5.11-1.94,10.6-2.91,16.49-2.91s11.35.89,16.4,2.66c5.05,1.78,9.41,4.41,13.07,7.91,3.66,3.5,6.55,7.8,8.66,12.91,2.11,5.11,3.16,11.05,3.16,17.82ZM786.49,196.5c0-4.33-.44-8.02-1.33-11.08-.89-3.05-2.11-5.55-3.66-7.49-1.56-1.94-3.33-3.36-5.33-4.25-2-.89-4.05-1.33-6.16-1.33s-4.14.39-6.08,1.17c-1.94.78-3.66,2.11-5.16,4-1.5,1.89-2.69,4.36-3.58,7.41-.89,3.06-1.33,6.91-1.33,11.58,0,8.11,1.66,14.05,5,17.82,3.33,3.78,7.16,5.66,11.49,5.66,2.11,0,4.14-.42,6.08-1.25,1.94-.83,3.66-2.16,5.16-4,1.5-1.83,2.69-4.25,3.58-7.24.89-3,1.33-6.66,1.33-10.99Z"/>
  <path class="cls-7" d="M851.61,236.14h-24.65v-79.94h19.15l2.83,9.99c3.55-3.66,7.44-6.55,11.66-8.66,4.22-2.11,8.94-3.16,14.16-3.16,11.43,0,19.26,4.05,23.48,12.16,3.55-3.66,7.58-6.6,12.07-8.83,4.5-2.22,9.3-3.33,14.41-3.33,8.55,0,15.16,2.31,19.82,6.91,4.66,4.61,6.99,11.35,6.99,20.24v54.63h-24.65v-52.13c0-3.33-.89-6-2.66-7.99-1.78-2-4.16-3-7.16-3-2.66,0-5.44.67-8.33,2-2.89,1.33-5.28,3.28-7.16,5.83v55.29h-24.65v-52.13c0-3.33-.89-6-2.66-7.99-1.78-2-4.16-3-7.16-3-2.66,0-5.44.78-8.33,2.33-2.89,1.56-5.28,3.61-7.16,6.16v54.63Z"/>
  <path class="cls-7" d="M972.35,163.2c4.55-2.66,9.69-4.8,15.41-6.41,5.72-1.61,11.57-2.41,17.57-2.41,9.88,0,17.82,2.39,23.82,7.16,5.99,4.78,8.99,12.38,8.99,22.82v51.79h-18.82l-2.16-7.99h-.67c-2.22,2.89-5.3,5.25-9.24,7.08-3.94,1.83-8.58,2.75-13.91,2.75-4.55,0-8.52-.67-11.91-2-3.39-1.33-6.19-3.11-8.41-5.33-2.22-2.22-3.91-4.85-5.08-7.91-1.17-3.05-1.75-6.3-1.75-9.74,0-4.66,1.02-8.66,3.08-11.99,2.05-3.33,4.83-6.05,8.33-8.16,3.5-2.11,7.6-3.66,12.32-4.66,4.72-1,9.74-1.5,15.07-1.5h8.33v-4.33c0-3-1.06-5.3-3.16-6.91-2.11-1.61-5.11-2.41-8.99-2.41-3.33,0-6.61.5-9.83,1.5-3.22,1-6.77,2.61-10.66,4.83l-8.33-16.15ZM1013.48,201.67l-5.5.17c-3.11.11-5.72.45-7.83,1-2.11.56-3.8,1.25-5.08,2.08-1.28.83-2.19,1.83-2.75,3-.56,1.17-.83,2.36-.83,3.58,0,3.44,1.03,5.8,3.08,7.08,2.05,1.28,4.41,1.92,7.08,1.92s5.08-.78,7.24-2.33c2.16-1.55,3.69-3.27,4.58-5.16v-11.33Z"/>
  <path class="cls-7" d="M1107.24,173.85h-20.48v33.81c0,3.66.8,6.22,2.41,7.66,1.61,1.44,3.86,2.16,6.74,2.16,2.22,0,4.44-.22,6.66-.67,2.22-.44,3.94-1.05,5.16-1.83l3.66,16.82c-1.89,1-4.75,1.97-8.58,2.91-3.83.94-7.91,1.42-12.24,1.42-10.32,0-17.63-2-21.9-5.99-4.27-4-6.41-10.05-6.41-18.15v-38.14h-12.49v-17.65h12.49v-24.32h24.48v24.32h20.48v17.65Z"/>
  <path class="cls-1" d="M1123.73,236.14v-104.92h25.32v40.8h36.47v-40.8h25.32v104.92h-25.32v-44.47h-36.47v44.47h-25.32Z"/>
  <path class="cls-1" d="M1282.28,156.2h24.65v79.94h-18.15l-2.5-8.66h-.67c-1.11,1.11-2.44,2.28-4,3.5-1.56,1.22-3.41,2.36-5.58,3.41-2.16,1.06-4.64,1.91-7.41,2.58-2.78.67-5.94,1-9.49,1-8.66,0-15.43-2.39-20.32-7.16-4.89-4.77-7.33-11.82-7.33-21.15v-53.46h24.65v51.46c0,4.11,1.02,7.13,3.08,9.08,2.05,1.94,4.69,2.91,7.91,2.91,3.89,0,7.08-.8,9.58-2.41,2.5-1.61,4.36-3.3,5.58-5.08v-55.96Z"/>
  <path class="cls-1" d="M1407.18,196.5c0,6.44-.97,12.21-2.91,17.32-1.94,5.11-4.61,9.47-7.99,13.07-3.39,3.61-7.39,6.36-11.99,8.24-4.61,1.89-9.63,2.83-15.07,2.83s-9.66-.81-13.32-2.41c-3.66-1.61-6.77-3.86-9.33-6.74h-.67l-1.5,7.33h-17.82v-119.08h24.48v44.63c2.55-2.11,5.55-3.86,8.99-5.25,3.44-1.39,7.27-2.08,11.49-2.08,11.1,0,19.82,3.69,26.15,11.08,6.33,7.38,9.49,17.74,9.49,31.06ZM1381.86,197.17c0-8.1-1.56-14.16-4.66-18.15-3.11-4-7.49-6-13.16-6-2.66,0-5.19.7-7.58,2.08-2.39,1.39-4.14,2.75-5.25,4.08v35.97c1.22,1.44,2.83,2.61,4.83,3.5,2,.89,4.11,1.33,6.33,1.33,2.55,0,5-.44,7.33-1.33,2.33-.89,4.41-2.27,6.24-4.16,1.83-1.89,3.27-4.27,4.33-7.16,1.05-2.89,1.58-6.27,1.58-10.16Z"/>
</svg>