<?xml version="1.0" encoding="UTF-8"?>
<svg id="Layer_1" data-name="Layer 1" xmlns="http://www.w3.org/2000/svg" xmlns:xlink="http://www.w3.org/1999/xlink" viewBox="0 0 214.21 214.21">
  <defs>
    <style>
      .cls-1 {
        fill: url(#linear-gradient-5);
      }

      .cls-2 {
        fill: url(#linear-gradient-4);
      }

      .cls-3 {
        fill: url(#linear-gradient-3);
      }

      .cls-4 {
        fill: url(#linear-gradient-2);
      }

      .cls-5 {
        fill: url(#linear-gradient);
      }
    </style>
    <linearGradient id="linear-gradient" x1="107.1" y1="33.74" x2="107.1" y2="182.88" gradientUnits="userSpaceOnUse">
      <stop offset="0" stop-color="#b671fb"/>
      <stop offset="1" stop-color="#4f316d"/>
    </linearGradient>
    <linearGradient id="linear-gradient-2" x1="109.13" y1="33.74" x2="109.13" y2="182.81" xlink:href="#linear-gradient"/>
    <linearGradient id="linear-gradient-3" x1="134.91" y1="33.74" x2="134.91" y2="182.88" xlink:href="#linear-gradient"/>
    <linearGradient id="linear-gradient-4" x1="163.78" y1="33.74" x2="163.78" y2="182.88" xlink:href="#linear-gradient"/>
    <linearGradient id="linear-gradient-5" x1="131.76" y1="33.74" x2="131.76" y2="182.88" xlink:href="#linear-gradient"/>
  </defs>
  <path class="cls-5" d="M176.01,99.49c-12.37.18-24.79.75-36.95,3.03-17.03,3.19-35.3,10.19-50.71,18.03-9.22,4.69-17.32,10.77-26.47,15.41l37.23-100.22h-29.72c-2.81,0-10.12,4.88-11.7,7.64C40.66,85.21,22.54,126.99,6.89,169.41c-.88,2.38-1.61,4.91-2.32,7.35-.14.47-1.22,1.35-.36,1.44,12.02-.83,25.44,1.1,37.28.03,1.21-.11.97.01,1.74-.75.12-.12-.11-.56,0-.72.44-.62.49-1.06.72-1.43,18.51-30.44,58.61-38.9,92.01-35.78,2.38.22,13.14,1.74,14.39,2.79,1.49,1.26,1.67,6.34,6.08,9.67,12.61,9.53,28.59-2.15,23.62-17.17-3.17-9.58-16.32-12.93-24.03-6.76-1.91,1.53-3.63,5.52-5.74,5.72-2,.19-6.44-1.56-8.79-1.94-5.37-.85-11.64-2.02-16.98-2.35-9.61-.59-19.42.35-28.99.35,12.08-7.33,26.15-13.09,39.94-16.62,13.01-3.33,26.33-4.89,39.79-4.53,3.87,16.66,28.5,18.81,33.96,2.37,7.52-22.62-25.68-34.12-33.21-11.6Z"/>
  <path class="cls-4" d="M86.96,84.14c-.59,6.06,8.06,19.4,9.29,26.04l35.08-15.04c-7.23-19.74-14.37-39.73-23.22-58.75-.76-.67-1.89-.93-2.83-.61-1.16.4-7.37,17.03-8.35,19.61-2.32,6.09-9.45,23.44-9.97,28.75Z"/>
  <path class="cls-3" d="M147.48,148.09c-12.4-3.67-25.54-4.37-38.35-2.82l13.96,32.21h37.6l-.33-2.17-12.88-27.21Z"/>
  <path class="cls-2" d="M134.91,93.72c1.33-.66,8.21-1.8,8.5-2.24.9-1.4-.65-11.57.23-14.44.38-1.24,2.42-2.23,3.51-2.94,1.22-.79,11.83-6.11,12.52-6.17,1.76-.15,4.99,3.29,7.19,4.24,15.82,6.84,30.88-8.21,24.75-24.02-5.55-14.3-27.03-14.64-33.65-1.18-2.3,4.68-.75,11.21-1.91,13.12-2.35,3.87-19.42,4.7-21.13,13.23-1.11,5.53.82,14.47,0,20.4Z"/>
  <path class="cls-1" d="M120.59,125.21c5.6.19,11.26-.22,16.86-.02,4.25.15,6.03,3.16,5.34-3.55h-12.53c-1.16,0-8.84,2.11-9.67,3.57Z"/>
</svg>